<svg xmlns="http://www.w3.org/2000/svg" width="31.573" height="34.184" viewBox="0 0 31.573 34.184"><defs><style>.a{fill:#ababab;}</style></defs><path class="a" d="M27.518,4.421H16.149L14.781.573A.864.864,0,0,0,13.966,0H4.048A4.053,4.053,0,0,0,0,4.048V25.715A4.055,4.055,0,0,0,4.048,29.77H16.225l1.368,3.847c0,.007,0,.007.007.014s.007.021.014.035l.021.041c.007.007.007.021.014.028a.385.385,0,0,0,.035.055.007.007,0,0,0,.007.007.38.38,0,0,0,.048.062.007.007,0,0,0,.007.007l.007.007a.21.21,0,0,0,.055.055l.014.014c.021.021.041.035.062.055s.014.014.021.014a.21.21,0,0,0,.048.035c.007.007.014.007.021.014a.323.323,0,0,0,.069.035c.007.007.014.007.021.014a.245.245,0,0,1,.062.028c.007,0,.014.007.021.007l.083.021h.014c.021.007.048.007.069.014h.021c.028,0,.055.007.083.007h9.111a4.053,4.053,0,0,0,4.048-4.048V8.468A4.064,4.064,0,0,0,27.518,4.421ZM1.727,25.722V4.048A2.326,2.326,0,0,1,4.048,1.727h9.311l9.352,26.316H4.048A2.326,2.326,0,0,1,1.727,25.722ZM21.474,29.77,18.815,31.9l-.753-2.127Zm8.365.373a2.321,2.321,0,0,1-2.321,2.321H20.873l3.606-2.88.014-.014c.007-.007.021-.014.028-.028l.041-.041.021-.021a.4.4,0,0,1,.048-.055c0-.007.007-.007.007-.014V29.4a.821.821,0,0,0,.09-.173c0-.007.007-.014.007-.028l.021-.062c0-.014.007-.021.007-.035s.007-.041.014-.062.007-.021.007-.028c0-.028.007-.055.007-.083V28.92a.456.456,0,0,0-.007-.1V28.8a.2.2,0,0,0-.014-.069c0-.007-.007-.021-.007-.028s-.014-.048-.021-.069,0-.007-.007-.014l-1.741-4.9H26.53a.863.863,0,1,0,0-1.727H22.379l-.8-2.259H26.53a.863.863,0,1,0,0-1.727H20.963l-.787-2.266h6.375a.863.863,0,1,0,0-1.727h-6.99l-.8-2.259h7.791a.863.863,0,1,0,0-1.727H18.145L16.764,6.147H27.511a2.321,2.321,0,0,1,2.321,2.321V30.143Z"/><path class="a" d="M60.911,105.877h-.58a4.87,4.87,0,0,0-3.536-3.84,1.257,1.257,0,0,0-2.514,0,4.89,4.89,0,0,0-3.536,3.84h-.58a.863.863,0,0,0,0,1.727H60.918a.863.863,0,1,0-.007-1.727Zm-8.4,0a3.156,3.156,0,0,1,2.728-2.266.713.713,0,0,1,.117-.007h.028a2.125,2.125,0,0,1,.3,0h.028c.041,0,.083.007.124.007a3.156,3.156,0,0,1,2.728,2.266Z" transform="translate(-45.895 -93.838)"/><path class="a" d="M60.818,254.3H50.063a.863.863,0,0,0,0,1.727H60.818a.863.863,0,1,0,0-1.727Z" transform="translate(-45.802 -236.735)"/><path class="a" d="M60.818,305.2H50.063a.863.863,0,1,0,0,1.727H60.818a.863.863,0,1,0,0-1.727Z" transform="translate(-45.802 -284.119)"/></svg>