<svg xmlns="http://www.w3.org/2000/svg" width="34.537" height="39.092" viewBox="0 0 34.537 39.092"><defs><style>.a{fill:#93d466;}</style></defs><path class="a" d="M.98,17.351H33.557a.98.98,0,0,0,0-1.96h-3.2A13.147,13.147,0,0,0,19.452,3.426V2.172a2.184,2.184,0,0,0-4.367.008V3.434A13.139,13.139,0,0,0,4.179,15.391H.98a.98.98,0,0,0,0,1.96Zm16.065-14.1V2.18a.22.22,0,0,1,.439,0V3.254h-.368A.217.217,0,0,0,17.045,3.246Zm-.886,2.015h0a10.8,10.8,0,0,1,1.113-.055,10.647,10.647,0,0,1,1.106.055h.008A11.188,11.188,0,0,1,28.4,15.391H6.147A11.181,11.181,0,0,1,16.159,5.261Z"/><path class="a" d="M33.557,244.3H.98a.98.98,0,0,0,0,1.96H5.653a3.7,3.7,0,0,0-.612,2.023,19.484,19.484,0,0,0,.572,5.2.961.961,0,0,0,.345.51l5.731,4.383a.944.944,0,0,0,.447.188l8.389,1.317,1.074,3.654a.983.983,0,0,0,.941.706h8.9a.99.99,0,0,0,.721-.314c.321-.345.329-.721.282-1.952-.024-.635-.063-1.505-.125-2.587-.11-1.835-.243-3.661-.243-3.677a.92.92,0,0,0-.259-.588c-1.074-1.168-2-4.359-2.266-5.5a.961.961,0,0,0-.235-.439,8.533,8.533,0,0,1-1.482-2.634c-.039-.1-.071-.2-.11-.282h5.833a.984.984,0,0,0,0-1.968Zm-3.411,11.863c.165,2.352.314,4.853.353,6.116H23.27l-1.043-3.544a.983.983,0,0,0-.792-.69l-8.75-1.38-5.261-4.022a18.307,18.307,0,0,1-.431-4.328v-.031a1.539,1.539,0,0,1,.314-.949c.039-.031.149-.125.51-.063.847.149,1.419,1.49,1.419,3.332a1,1,0,0,0,.361.76l3.011,2.478a.979.979,0,0,0,.619.22H24.933a.983.983,0,0,0,.729-1.639c-.024-.024-2.164-2.47-1.537-4.446.376-1.192.98-1.694,1.215-1.7h0c.125,0,.408.251.651.925a10.785,10.785,0,0,0,1.717,3.1A18.355,18.355,0,0,0,30.146,256.163ZM23.059,252.1H13.58l-2.391-1.968a5.983,5.983,0,0,0-1.356-3.873h12.9a6.784,6.784,0,0,0-.47,1.129A6.074,6.074,0,0,0,23.059,252.1Z" transform="translate(0 -225.146)"/></svg>