<?xml version="1.0" standalone="no"?>
<!DOCTYPE svg PUBLIC "-//W3C//DTD SVG 20010904//EN"
 "http://www.w3.org/TR/2001/REC-SVG-20010904/DTD/svg10.dtd">
<svg version="1.0" xmlns="http://www.w3.org/2000/svg"
 width="193.000000pt" height="193.000000pt" viewBox="0 0 193.000000 193.000000"
 preserveAspectRatio="xMidYMid meet">

<g transform="translate(0.000000,193.000000) scale(0.100000,-0.100000)"
fill="#000000" stroke="none">
<path d="M875 1906 c-69 -30 -125 -122 -125 -204 0 -24 -9 -42 -29 -63 -42
-42 -92 -40 -149 6 -56 44 -103 59 -164 52 -89 -11 -156 -70 -179 -160 -17
-61 -1 -125 47 -186 68 -87 34 -171 -74 -184 -136 -16 -221 -127 -193 -253 21
-92 105 -163 194 -164 107 0 151 -85 86 -166 -42 -53 -59 -94 -59 -149 0 -180
202 -272 347 -157 51 40 83 48 120 28 44 -22 56 -41 64 -102 16 -116 82 -184
188 -192 73 -5 118 9 160 50 44 43 60 76 69 148 11 76 39 110 92 110 23 0 48
-9 71 -26 48 -37 109 -64 144 -64 117 0 215 95 215 209 0 62 -10 90 -55 148
-43 56 -45 92 -8 133 23 26 39 33 93 40 123 17 195 100 188 217 -7 111 -80
184 -197 197 -69 8 -96 25 -111 70 -13 40 -3 70 39 124 94 119 40 286 -107
328 -67 20 -129 7 -184 -37 -100 -79 -171 -52 -188 72 -17 119 -93 189 -205
188 -33 0 -73 -6 -90 -13z m138 -80 c41 -17 65 -52 72 -108 11 -77 15 -87 47
-124 76 -87 167 -86 288 2 107 78 244 -59 166 -166 -57 -79 -69 -110 -63 -172
8 -95 83 -168 172 -168 82 0 138 -51 138 -125 0 -71 -57 -125 -134 -125 -55 0
-116 -37 -145 -86 -37 -63 -36 -128 2 -189 63 -101 68 -114 55 -155 -16 -55
-62 -90 -116 -90 -35 0 -53 8 -96 40 -81 60 -154 66 -229 16 -45 -29 -70 -80
-79 -158 -21 -170 -222 -168 -245 2 -8 63 -24 95 -63 132 -72 68 -185 65 -264
-9 -78 -72 -202 -15 -202 93 0 34 7 53 36 90 62 80 70 157 23 226 -33 49 -67
68 -142 81 -83 15 -109 28 -129 67 -43 82 15 180 107 180 71 1 143 52 173 122
28 68 14 130 -50 217 -62 85 -4 191 104 191 30 0 49 -8 80 -34 52 -44 101 -60
159 -52 95 13 146 70 161 180 10 73 20 89 66 118 36 21 64 23 108 4z"/>
<path d="M895 1251 c-98 -26 -185 -108 -211 -199 -42 -143 27 -293 161 -353
61 -28 171 -30 225 -6 116 51 181 150 181 272 0 119 -69 226 -175 270 -44 19
-140 27 -181 16z m138 -90 c40 -16 99 -73 118 -116 36 -79 15 -171 -54 -232
-133 -117 -336 -27 -337 150 0 90 42 157 120 191 40 17 117 21 153 7z"/>
</g>
</svg>
